<svg fill="none" version="1.1" viewBox="0 0 325 206" xmlns="http://www.w3.org/2000/svg">
 <g fill="#F4D7C9" opacity=".4">
  <path d="m292.33 158.53-1.262-0.702c-0.798-0.446-1.292-1.288-1.279-2.205 3e-3 -0.102 3e-3 -0.205 3e-3 -0.308 0-0.102-3e-3 -0.205-3e-3 -0.307-0.013-0.913 0.478-1.759 1.279-2.205l1.262-0.702c0.997-0.554 1.487-1.714 1.196-2.817-3e-3 -0.012-7e-3 -0.025-0.013-0.038-0.295-1.099-1.304-1.859-2.442-1.843l-1.445 0.023c-0.926 0.016-1.772-0.49-2.221-1.298-0.09-0.16-0.183-0.317-0.272-0.474-0.478-0.795-0.494-1.782-0.016-2.58l0.74-1.231c0.586-0.98 0.433-2.23-0.375-3.037-0.01-0.01-0.022-0.023-0.029-0.029-0.807-0.808-2.057-0.962-3.038-0.375l-1.23 0.74c-0.798 0.478-1.785 0.462-2.58-0.016-0.157-0.09-0.314-0.183-0.474-0.272-0.808-0.452-1.314-1.298-1.298-2.221l0.022-1.445c0.02-1.138-0.74-2.147-1.842-2.442-0.013-3e-3 -0.026-7e-3 -0.039-0.013-1.102-0.292-2.265 0.199-2.817 1.195l-0.701 1.263c-0.446 0.798-1.289 1.291-2.205 1.278-0.103-3e-3 -0.205-3e-3 -0.308-3e-3 -0.102 0-0.205 3e-3 -0.307 3e-3 -0.914 0.013-1.76-0.477-2.205-1.278l-0.702-1.263c-0.554-0.996-1.714-1.487-2.817-1.195-0.013 3e-3 -0.025 6e-3 -0.038 0.013-1.099 0.295-1.859 1.304-1.843 2.442l0.023 1.445c0.016 0.926-0.491 1.772-1.298 2.221-0.16 0.089-0.317 0.182-0.474 0.272-0.795 0.478-1.782 0.494-2.58 0.016l-1.231-0.74c-0.98-0.587-2.23-0.433-3.038 0.375-9e-3 9e-3 -0.022 0.022-0.028 0.029-0.808 0.807-0.962 2.057-0.375 3.037l0.74 1.231c0.477 0.798 0.461 1.785-0.016 2.58-0.09 0.157-0.183 0.314-0.273 0.474-0.451 0.808-1.297 1.314-2.22 1.298l-1.446-0.023c-1.137-0.019-2.147 0.741-2.441 1.843-4e-3 0.013-7e-3 0.026-0.013 0.038-0.292 1.103 0.198 2.266 1.195 2.817l1.263 0.702c0.798 0.446 1.291 1.288 1.278 2.205-3e-3 0.102-3e-3 0.205-3e-3 0.307 0 0.103 3e-3 0.206 3e-3 0.308 0.013 0.913-0.477 1.759-1.278 2.205l-1.263 0.702c-0.997 0.554-1.487 1.714-1.195 2.816 3e-3 0.013 6e-3 0.026 0.013 0.039 0.294 1.099 1.304 1.859 2.441 1.843l1.446-0.023c0.926-0.016 1.772 0.49 2.22 1.298 0.09 0.16 0.183 0.317 0.273 0.474 0.477 0.795 0.493 1.782 0.016 2.58l-0.74 1.23c-0.587 0.981-0.433 2.231 0.375 3.038 9e-3 0.01 0.022 0.023 0.028 0.029 0.808 0.808 2.058 0.962 3.038 0.375l1.231-0.74c0.798-0.478 1.785-0.462 2.58 0.016 0.157 0.09 0.314 0.183 0.474 0.272 0.807 0.452 1.314 1.298 1.298 2.221l-0.023 1.445c-0.019 1.138 0.74 2.147 1.843 2.442 0.013 3e-3 0.025 7e-3 0.038 0.013 1.103 0.292 2.266-0.199 2.817-1.195l0.702-1.263c0.445-0.798 1.288-1.291 2.205-1.279 0.102 4e-3 0.205 4e-3 0.307 4e-3 0.103 0 0.205-4e-3 0.308-4e-3 0.913-0.012 1.759 0.478 2.205 1.279l0.701 1.263c0.555 0.996 1.715 1.487 2.817 1.195 0.013-3e-3 0.026-6e-3 0.039-0.013 1.099-0.295 1.858-1.304 1.842-2.442l-0.022-1.445c-0.016-0.926 0.49-1.772 1.298-2.221 0.16-0.089 0.317-0.182 0.474-0.272 0.795-0.478 1.782-0.494 2.58-0.016l1.23 0.74c0.981 0.587 2.231 0.433 3.038-0.375 0.01-9e-3 0.023-0.022 0.029-0.029 0.808-0.807 0.961-2.057 0.375-3.038l-0.74-1.23c-0.478-0.798-0.462-1.785 0.016-2.58 0.089-0.157 0.182-0.314 0.272-0.474 0.452-0.808 1.298-1.314 2.221-1.298l1.445 0.023c1.138 0.019 2.147-0.741 2.442-1.843 3e-3 -0.013 6e-3 -0.026 0.013-0.039 0.291-1.102-0.199-2.262-1.196-2.816zm-21.384 10.805c-7.742 0-14.019-6.274-14.019-14.02 0-7.742 6.274-14.019 14.019-14.019 7.743 0 14.02 6.274 14.02 14.019 0 7.746-6.277 14.02-14.02 14.02z" opacity=".4"/>
  <path d="m270.95 161.76c3.496 0 6.329-2.834 6.329-6.329 0-3.496-2.833-6.329-6.329-6.329-3.495 0-6.329 2.833-6.329 6.329 0 3.495 2.834 6.329 6.329 6.329z" opacity=".4"/>
 </g>
 <path d="m204.97 201.18s4.412-12.95 18.391-8.239c0 0 3.531-11.037 13.241-10.668 9.71 0.368 12.802 9.45 12.802 9.45s13.046-1.577 14.911 9.457h-59.345z" fill="#ccadad"/>
 <g fill="#ab6e6e">
  <path d="m234.51 201.11-0.551-0.09c1.256-7.787-3.576-13.392-3.624-13.449l0.42-0.369c0.051 0.058 5.053 5.852 3.755 13.908z"/>
  <path d="m234.67 196.34-0.43-0.359c0.045-0.055 4.467-5.342 5.22-8.656l0.545 0.125c-0.782 3.442-5.149 8.669-5.335 8.89z"/>
  <path d="m234.43 199.13c-3.474-0.189-6.55-3.769-6.678-3.919l0.426-0.362c0.029 0.035 3.051 3.547 6.284 3.723l-0.032 0.558z"/>
  <path d="m245.37 201.39-0.365-0.423c0.25-0.218 6.172-5.304 9.258-5.387l0.016 0.561c-2.891 0.077-8.851 5.198-8.909 5.249z"/>
 </g>
 <path d="m256.9 200.4c-0.048-3e-3 -4.762-0.288-8.579-1.275l0.141-0.542c3.766 0.971 8.425 1.256 8.47 1.256l-0.032 0.561z" fill="#6EAB9C"/>
 <path d="m221.77 201.1c-3.105-2.583-9.665-4.647-9.729-4.669l0.167-0.535c0.272 0.086 6.729 2.118 9.921 4.771l-0.359 0.433z" fill="#ab6e6e"/>
 <path d="m219.42 199.07-0.561-0.016c0.077-2.615-1.061-4.669-1.074-4.688l0.487-0.276c0.055 0.09 1.231 2.205 1.148 4.98z" fill="#ab6e6e"/>
 <g opacity=".4">
  <path d="m195.02 148.95-0.737-0.41c-0.468-0.26-0.753-0.753-0.747-1.285 0-0.061 3e-3 -0.119 3e-3 -0.18 0-0.06 0-0.118-3e-3 -0.179-0.01-0.532 0.279-1.025 0.747-1.285l0.737-0.41c0.583-0.324 0.868-1 0.698-1.644-3e-3 -7e-3 -3e-3 -0.016-6e-3 -0.023-0.173-0.64-0.763-1.086-1.426-1.073l-0.843 0.013c-0.541 9e-3 -1.035-0.285-1.298-0.757-0.054-0.092-0.106-0.185-0.16-0.275-0.279-0.465-0.288-1.042-0.01-1.506l0.433-0.718c0.343-0.571 0.253-1.301-0.218-1.772-6e-3 -7e-3 -0.013-0.013-0.019-0.019-0.471-0.472-1.202-0.561-1.772-0.218l-0.718 0.432c-0.465 0.279-1.042 0.269-1.506-9e-3 -0.093-0.055-0.183-0.106-0.276-0.161-0.471-0.262-0.766-0.756-0.756-1.297l0.013-0.843c9e-3 -0.664-0.433-1.253-1.074-1.426-6e-3 -3e-3 -0.016-3e-3 -0.022-7e-3 -0.644-0.17-1.321 0.116-1.644 0.699l-0.41 0.737c-0.26 0.468-0.753 0.753-1.285 0.747-0.061 0-0.119-4e-3 -0.18-4e-3s-0.118 0-0.179 4e-3c-0.532 9e-3 -1.026-0.279-1.285-0.747l-0.41-0.737c-0.324-0.583-1-0.869-1.644-0.699-7e-3 4e-3 -0.016 4e-3 -0.023 7e-3 -0.641 0.173-1.086 0.759-1.073 1.426l0.012 0.843c0.01 0.541-0.285 1.035-0.756 1.297-0.093 0.055-0.186 0.106-0.275 0.161-0.465 0.278-1.042 0.288-1.507 9e-3l-0.717-0.432c-0.571-0.343-1.301-0.254-1.772 0.218-7e-3 6e-3 -0.013 0.012-0.02 0.019-0.471 0.471-0.561 1.201-0.218 1.772l0.433 0.718c0.279 0.464 0.269 1.041-0.01 1.506-0.054 0.093-0.105 0.183-0.16 0.275-0.263 0.472-0.756 0.766-1.298 0.757l-0.843-0.013c-0.663-0.01-1.252 0.433-1.426 1.073-3e-3 7e-3 -3e-3 0.016-6e-3 0.023-0.17 0.644 0.115 1.32 0.699 1.644l0.737 0.41c0.468 0.26 0.753 0.753 0.746 1.285 0 0.061-3e-3 0.119-3e-3 0.179 0 0.061 0 0.119 3e-3 0.18 0.01 0.532-0.278 1.025-0.746 1.285l-0.737 0.41c-0.584 0.324-0.869 1-0.699 1.644 3e-3 6e-3 3e-3 0.016 6e-3 0.022 0.174 0.641 0.76 1.087 1.426 1.074l0.843-0.013c0.542-9e-3 1.035 0.285 1.298 0.756 0.055 0.093 0.106 0.186 0.16 0.276 0.279 0.465 0.289 1.042 0.01 1.506l-0.433 0.718c-0.343 0.57-0.253 1.301 0.218 1.772 7e-3 7e-3 0.013 0.013 0.02 0.019 0.471 0.471 1.201 0.561 1.772 0.218l0.717-0.432c0.465-0.279 1.042-0.27 1.507 9e-3 0.093 0.055 0.182 0.106 0.275 0.161 0.471 0.262 0.766 0.756 0.756 1.297l-0.012 0.843c-0.01 0.664 0.432 1.253 1.073 1.426 7e-3 3e-3 0.016 3e-3 0.023 7e-3 0.644 0.169 1.32-0.116 1.644-0.699l0.41-0.737c0.259-0.468 0.753-0.753 1.285-0.747 0.061 0 0.118 3e-3 0.179 3e-3s0.119 0 0.18-3e-3c0.532-9e-3 1.025 0.279 1.285 0.747l0.41 0.737c0.323 0.583 1 0.868 1.644 0.699 6e-3 -4e-3 0.016-4e-3 0.022-7e-3 0.641-0.173 1.087-0.759 1.074-1.426l-0.013-0.843c-0.01-0.541 0.285-1.035 0.756-1.297 0.093-0.055 0.186-0.106 0.276-0.161 0.464-0.279 1.041-0.288 1.506-9e-3l0.718 0.432c0.57 0.343 1.301 0.253 1.772-0.218 6e-3 -6e-3 0.013-0.012 0.019-0.019 0.471-0.471 0.561-1.202 0.218-1.772l-0.433-0.718c-0.278-0.464-0.269-1.041 0.01-1.506 0.054-0.093 0.106-0.183 0.16-0.276 0.263-0.471 0.757-0.765 1.298-0.756l0.843 0.013c0.663 0.01 1.253-0.433 1.426-1.074 3e-3 -6e-3 3e-3 -0.016 6e-3 -0.022 0.17-0.644-0.115-1.323-0.698-1.644zm-12.482 6.307c-4.518 0-8.184-3.663-8.184-8.185 0-4.521 3.662-8.184 8.184-8.184 4.518 0 8.184 3.663 8.184 8.184 0 4.522-3.662 8.185-8.184 8.185z" fill="#F4D7C9" opacity=".4"/>
 </g>
 <g>
  <path d="m59.682 111.75h-59.682s4.105-9.158 13.578-5.367c0 0 3.4738-9.473 11.684-8.3674 8.2101 1.1055 9.7899 6.8224 9.7899 6.8224s8.8414-3.509 17.369 3.599c-0.0032-3e-3 6.9443-0.792 7.2616 3.313z" fill="#f6eded"/>
  <path d="m262.02 32.212h49.809s-4.115-7.8191-14.757-4.935c0 0-2.695-8.1844-12.347-8.1844-9.649 0-13.056 8.1844-13.056 8.1844s-8.796-0.3941-9.649 4.935z" fill="#f6eded"/>
  <path d="m263.62 143.56-190.19 3.509-4.4672-3.509v-111.05h194.66l4.468 3.509-4.468 107.54z" fill="#d5b6b6"/>
  <path d="m263.62 24.528-190.19 3.5122-4.4672-3.5122v-14.039h194.66l4.468 3.5089-4.468 10.53z" fill="#d5b6b6"/>
  <path d="m268.09 36.017h-194.66v111.05h194.66v-111.05z" fill="#ecdcdc"/>
  <path d="m133.48 47.291h-52.792v27.175h52.792v-27.175z" fill="#e5b2b2"/>
 </g>
 <g fill="#fff">
  <path d="m256.65 114.91h-55.31v2.208h55.31v-2.208z"/>
  <path d="m256.65 123.67h-55.31v2.208h55.31v-2.208z"/>
  <path d="m256.65 132.54h-55.31v2.208h55.31v-2.208z"/>
  <path d="m194.69 117.81h-0.125c-0.993 0-1.797-0.804-1.797-1.797 0-0.994 0.804-1.798 1.797-1.798h0.125c0.994 0 1.798 0.804 1.798 1.798 0 0.993-0.804 1.797-1.798 1.797z"/>
  <path d="m194.69 126.57h-0.125c-0.993 0-1.797-0.804-1.797-1.798 0-0.993 0.804-1.797 1.797-1.797h0.125c0.994 0 1.798 0.804 1.798 1.797 0 0.994-0.804 1.798-1.798 1.798z"/>
  <path d="m194.69 135.47h-0.125c-0.993 0-1.797-0.805-1.797-1.798 0-0.994 0.804-1.798 1.797-1.798h0.125c0.994 0 1.798 0.804 1.798 1.798 0 0.993-0.804 1.798-1.798 1.798z"/>
  <path d="m144.43 82.553h-55.311v2.208h55.311v-2.208z"/>
  <path d="m144.43 91.316h-55.311v2.208h55.311v-2.208z"/>
  <path d="m82.468 85.453h-0.125c-0.9934 0-1.7978-0.8043-1.7978-1.7977s0.8044-1.7978 1.7978-1.7978h0.125c0.9934 0 1.7977 0.8044 1.7977 1.7978s-0.8043 1.7977-1.7977 1.7977z"/>
  <path d="m82.466 94.217h-0.125c-0.9934 0-1.7977-0.8043-1.7977-1.7977s0.8043-1.7978 1.7977-1.7978h0.125c0.9934 0 1.7978 0.8044 1.7978 1.7978s-0.8044 1.7977-1.7978 1.7977z"/>
 </g>
 <path d="m268.09 13.998h-194.66v14.042h194.66v-14.042z" fill="#e0c6c6"/>
 <path d="m101.83 21.019c0 1.1152-0.903 2.0221-2.0218 2.0221-1.1184 0-2.0221-0.9037-2.0221-2.0221 0-1.1183 0.9037-2.022 2.0221-2.022 1.1188 0 2.0218 0.9069 2.0218 2.022z" fill="#67B4D2"/>
 <path d="m91.512 23.041c1.1168 0 2.0221-0.9053 2.0221-2.0221 0-1.1167-0.9053-2.022-2.0221-2.022s-2.0221 0.9053-2.0221 2.022c0 1.1168 0.9053 2.0221 2.0221 2.0221z" fill="#EB908B"/>
 <path d="m83.215 23.041c1.1168 0 2.0221-0.9053 2.0221-2.0221 0-1.1167-0.9053-2.022-2.0221-2.022-1.1167 0-2.022 0.9053-2.022 2.022 0 1.1168 0.9053 2.0221 2.022 2.0221z" fill="#FFAA3F"/>
 <path d="m273.16 102.62h-86.184c-1.852 0-3.355-1.503-3.355-3.355v-48.485c0-1.8522 1.503-3.3551 3.355-3.3551h86.184c1.852 0 3.355 1.5029 3.355 3.3551v48.485c0 1.855-1.503 3.355-3.355 3.355z" fill="#e5b2b2"/>
 <path d="m276.02 105.24h-86.183c-1.853 0-3.356-1.503-3.356-3.355v-48.485c0-1.8522 1.503-3.3552 3.356-3.3552h86.183c1.852 0 3.355 1.503 3.355 3.3552v48.485c-3e-3 1.852-1.503 3.355-3.355 3.355z" fill="#b83f3f"/>
 <g fill="#fff">
  <path d="m224.7 58.009h-2.573v39.499h2.573v-39.499z"/>
  <path d="m219.02 58.009h-2.574v39.499h2.574v-39.499z"/>
  <path d="m213.33 58.009h-2.573v39.499h2.573v-39.499z"/>
  <path d="m207.65 58.009h-2.573v39.499h2.573v-39.499z"/>
  <path d="m201.96 58.009h-2.573v39.499h2.573v-39.499z"/>
  <path d="m196.27 58.008h-2.573v39.499h2.573v-39.499z"/>
 </g>
 <g fill="#e0c6c6">
  <path d="m224.7 85.14h-2.573v12.373h2.573v-12.373z"/>
  <path d="m219.02 71.837h-2.574v25.672h2.574v-25.672z"/>
  <path d="m213.33 65.188h-2.573v32.321h2.573v-32.321z"/>
  <path d="m207.65 75.023h-2.573v22.486h2.573v-22.486z"/>
  <path d="m201.96 81.424h-2.573v16.084h2.573v-16.084z"/>
  <path d="m196.27 86.481h-2.573v11.027h2.573v-11.027z"/>
 </g>
 <g fill="#fff">
  <path d="m244.69 64.132c0.628-2.6629-1.021-5.3312-3.683-5.96-2.663-0.6287-5.332 1.0202-5.96 3.683-0.629 2.6628 1.02 5.3312 3.683 5.9599 2.662 0.6288 5.331-1.0201 5.96-3.6829z"/>
  <path d="m271.69 58.131h-22.002v1.4228h22.002v-1.4228z"/>
  <path d="m271.69 62.336h-22.002v1.4229h22.002v-1.4229z"/>
  <path d="m261.86 66.498h-12.177v1.4229h12.177v-1.4229z"/>
  <path d="m244.69 82.187c0.628-2.6629-1.021-5.3312-3.683-5.96-2.663-0.6288-5.332 1.0202-5.96 3.683-0.629 2.6628 1.02 5.3312 3.683 5.9599 2.662 0.6288 5.331-1.0201 5.96-3.6829z"/>
  <path d="m271.69 76.186h-22.002v1.4229h22.002v-1.4229z"/>
  <path d="m271.69 80.386h-22.002v1.4228h22.002v-1.4228z"/>
  <path d="m261.86 84.549h-12.177v1.4229h12.177v-1.4229z"/>
 </g>
 <path d="m324.34 200.78h-324.34v4.505h324.34v-4.505z" fill="#cbaeae"/>
 <path d="m270.38 72.981-1.84-4.371s-3.403-3.5891-1.471-6.486c1.933-2.9001 10.124-3.5891 11.918 6.9923 0 0 2.897 0.093 3.403 2.897 0.507 2.8071-2.025 4.6466-2.807 6.7167-0.782 2.0702-2.531 2.8072-2.531 2.8072l-3.266 0.5063-3.406-9.0625z" fill="#0C1B3C"/>
 <path d="m290.2 131.82s-1.932 3.083-2.394 4.74c-0.461 1.657-0.874 2.163-0.506 2.483 0.369 0.324 1.288-1.333 1.932-2.163 0.645-0.83 0.737 2.208 0.737 3.314 0 1.105-0.531 3.083 0.068 3.127 0.599 0.045 2.14-2.531 2.692-3.589 0.551-1.057 0.304-7.912 0.304-7.912h-2.833z" fill="#E9928B"/>
 <path d="m285.21 193.5-1.382 1.035s-1.035 4.003-0.551 5.554h16.356s-1.586-2.279-4.832-3.295c-3.243-1.019-4.211-1.362-4.692-2.259-0.484-0.897-4.899-1.035-4.899-1.035z" fill="#FFAB40"/>
 <path d="m259.2 192.95 1.173 1.587s1.448 3.518 0.826 5.553h-13.664s0.209-2.278 2.484-3.294c2.278-1.019 4.278-2.259 4.278-2.259l4.903-1.587z" fill="#FFAB40"/>
 <path d="m299.64 200.09h-16.356v1.621h16.356v-1.621z" fill="#fff"/>
 <path d="m261.2 200.09h-13.664v1.621h13.664v-1.621z" fill="#fff"/>
 <path d="m290.11 194.53h-6.281l-0.436-2.932-0.458-3.073 6.691-0.965 0.282 4.038 0.202 2.932z" fill="#E9928B"/>
 <path d="m261.2 188.67-0.414 2.932-0.416 2.932h-6.073l0.381-2.932 0.378-2.932h6.144z" fill="#E9928B"/>
 <path d="m255.06 188.67h6.143l-0.413 2.932h-6.108l0.378-2.932z" fill="#DE6667"/>
 <path d="m289.91 191.6h-6.515l-0.458-3.073 6.691-0.965 0.282 4.038z" fill="#DE6667"/>
 <path d="m291.63 190.12h-9.8s-7.591-27.053-8.418-30.921c-0.827-3.861-3.682-12.376-3.682-12.376l-7.361 43.294h-8.643s-0.362-20.843 0-27.745c0.289-5.512 1.756-23.086 3.25-31.838 0.378-2.208 0.756-3.852 1.115-4.601 1.794-3.727 23.739 4.278 23.739 4.278s0.151 0.849 0.41 2.323c0.84 4.749 2.827 15.962 4.653 25.973 2.388 13.116 4.737 31.613 4.737 31.613z" fill="#5F6386"/>
 <path d="m269.73 146.82-3.291-11.639s-3.381 6.441-2.417 11.639c0.968 5.197-2.957 7.11-0.173 12.651 2.785 5.544-1.224 9.774 1.478 13.238l4.403-25.889z" fill="#4A4E73"/>
 <path d="m282.24 132.54c-2.593 0.558-5.781 0.558-9.646-0.516-8.768-2.432-13.402-2.073-15.622-1.487 0.378-2.208 0.756-3.852 1.115-4.601 1.794-3.727 23.739 4.278 23.739 4.278s0.154 0.852 0.414 2.326z" fill="#4A4E73"/>
 <path d="m248.22 78.729s-0.552-2.8617 0.689-4.339c1.24-1.4773 4.198 0.8204 4.198 0.8204s1.916 2.0605 0.929 3.9961c-0.987 1.9387-5.816-0.4775-5.816-0.4775z" fill="#E9928B"/>
 <path d="m286 102.52c-1.202 6.967-3.173 14.722-2.926 18.17 0.458 6.441 0.737 8.835 1.106 10.03 0.365 1.199-5.429 2.208-11.687 0-3.016-1.067-6.848-1.724-10.002-2.121-3.393-0.423-6.008-0.545-6.008-0.545s1.749-9.296 2.301-14.174c0.554-4.877-0.032-10.488-0.032-10.488s-4e-3 3e-3 -0.01 0.01c-0.269 0.208-7.114 5.441-10.636 2.05-0.509-0.49-0.894-1.172-1.179-1.996-2.311-6.7007 2.105-22.884 2.105-22.884l5.246 0.737s-0.737 12.607-0.276 12.7c0.459 0.0929 5.429-4.4159 7.823-6.1656 1.339-0.9806 3.595-1.5574 5.973-1.8138 1.865-0.1955 3.804-0.1922 5.435-0.0288 0 0 2.419 0.0545 5.329 0.6793 2.32 0.4936 4.948 1.3492 6.909 2.8168 2.045 1.5382 1.577 6.9828 0.529 13.023z" fill="#c47d7d"/>
 <g opacity=".65">
  <path d="m284.18 130.72c0.365 1.198-5.429 2.208-11.687 0-3.016-1.067-6.848-1.724-10.002-2.122 1.157-1.442 3.134-2.903 7.243-4.117 10.075-2.984 0.458-8.111 6.239-11.469 5.781-3.356 6.271-13.626 6.271-13.626l3.756 3.1313c-1.202 6.966-3.173 14.721-2.926 18.169 0.462 6.445 0.737 8.835 1.106 10.034z" fill="#963737" opacity=".65"/>
 </g>
 <path d="m278.56 86.68c-2.551 4.7716-9.777 8.9439-9.777 8.9439-1.247-3.6051-1.109-7.8928-0.987-9.5977 1.865-0.1954 3.804-0.1922 5.435-0.0288 0 0.0032 2.419 0.0577 5.329 0.6826z" fill="#fff"/>
 <path d="m281.97 89.129c1.259-1.4004 3.864-0.1826 7.085 4.5088 3.221 4.6915 5.98 15.09 6.534 18.68 0.551 3.589-0.276 15.92-2.025 21.255l-4.701-0.368s-1.189-17.667-1.372-18.862-3.958-10.675-5.521-15.827c-1.564-5.153-1.657-7.5468 0-9.3862z" fill="#c47d7d"/>
 <path d="m277.04 86.69c0 0.6922-1.012 1.8843-3.496 2.3458-2.483 0.4582-5.521-1.3331-4.601-2.5316 0.342-0.4486 0.554-1.3395 0.679-2.2817 0.211-1.5734 0.195-3.2846 0.195-3.2846s5.381-5.0152 5.336-2.4387c-0.048 2.5765 1.884 3.0379 1.884 3.0379-0.637 2.8521 3e-3 4.464 3e-3 5.1529z" fill="#E9928B"/>
 <path d="m275.16 78.498c-1.435 3.6179-3.691 5.1176-5.534 5.7233 0.211-1.5734 0.195-3.2847 0.195-3.2847s5.384-5.0119 5.339-2.4386z" fill="#DE6667"/>
 <path d="m254.27 81.306s-0.182-3.8775-1.32-5.1946c-1.141-1.317-2.096-1.0767-1.9 0 0.199 1.0768 1.067 2.9675 0.224 4.7588l2.996 0.4358z" fill="#E9928B"/>
 <path d="m252.93 186.67v3.81h9.649l0.874-3.81h-10.523z" fill="#4A4E73"/>
 <path d="m281.39 190.48h10.911l-0.317-3.81h-11.748l1.154 3.81z" fill="#4A4E73"/>
 <g fill="#fff">
  <path d="m288.5 196.56-0.266-0.09c0.013-0.038 0.324-0.91 2.183-1.592l0.096 0.263c-1.711 0.628-2.01 1.41-2.013 1.419z"/>
  <path d="m290.61 197.62-0.269-0.071c0.016-0.057 0.388-1.41 1.929-1.836l0.074 0.269c-1.385 0.382-1.721 1.586-1.734 1.638z"/>
  <path d="m293.17 197.59-0.278-0.026c3e-3 -0.032 0.077-0.817 0.586-1.349l0.202 0.192c-0.439 0.461-0.51 1.176-0.51 1.183z"/>
  <path d="m256.41 195.61c-1.404-0.542-2.83-0.507-2.843-0.507l-9e-3 -0.278c0.064-4e-3 1.496-0.039 2.951 0.525l-0.099 0.26z"/>
  <path d="m254.8 196.64c-1.515-0.67-2.659-0.747-2.669-0.75l0.016-0.279c0.048 3e-3 1.198 0.08 2.765 0.773l-0.112 0.256z"/>
  <path d="m252.36 197.15c-0.429-0.387-1.592-0.567-1.605-0.567l0.042-0.275c0.051 6e-3 1.256 0.195 1.749 0.637l-0.186 0.205z"/>
 </g>
 <g opacity=".65">
  <path d="m260.04 96.185c-0.971 2.5188-1.288 7.2074-1.288 7.2074s-4e-3 3e-3 -0.01 9e-3c-0.269 0.209-7.114 5.442-10.636 2.051-0.509-0.49-0.894-1.173-1.179-1.996 1.948 0.269 3.615 2.32 5.922-0.061 3.583-3.7046 7.191-7.2104 7.191-7.2104z" fill="#963737" opacity=".65"/>
 </g>
 <path d="m268.54 68.609s-3.82 10.488-0.919 12.607c2.9 2.115 7.546-2.7143 7.546-2.7143s1.977 0.093 3.038-1.5189c1.058-1.6087-0.782-2.3169-1.609-1.801-0.826 0.5128-1.794-0.2692-1.15-2.2464s0.276-2.0701-0.968-1.7945c-1.246 0.2724-5.8-1.9804-5.938-2.5316z" fill="#E9928B"/>
 <path d="m289.7 186.73c-4.063-30.353-10.796-53.481-10.863-53.712l0.804-0.237c0.068 0.231 6.82 23.422 10.889 53.837l-0.83 0.112z" fill="#4A4E73"/>
 <path d="m81.029 70.219s-1.3043-4.3518-1.3043-5.7457c0-1.394 1.2754-5.31 1.9868-5.3965 0.7115-0.0865 2.1022 7.5724 2.7143 8.617 0.6089 1.0447-0.5224 2.5252-0.5224 2.5252h-2.8744z" fill="#91415C"/>
 <path d="m16.036 166.68-4.6274-5.099 1.7753-1.82 3.5923-3.682 4.4319 4.881-3.4609 3.826-1.7112 1.894z" fill="#91415C"/>
 <path d="m17.747 164.79-4.5633-5.025 3.5923-3.682 4.4319 4.881-3.4609 3.826z" fill="#75354A"/>
 <path d="m11.408 161.58 4.6274 5.095s-0.2532 4.406 1.7208 7.105c1.9772 2.698 2.506 4.582 1.6023 6.582l-13.764-15.161 5.8131-3.621z" fill="#FDAB3F"/>
 <g fill="#fff">
  <path d="m15.99 168.51c-1.0704-0.776-3.5859-1.475-3.6116-1.481l0.0737-0.269c0.1058 0.029 2.5893 0.718 3.7013 1.522l-0.1634 0.228z"/>
  <path d="m16.195 169.98c-1.2722-0.535-3.2558-0.32-3.2751-0.317l-0.032-0.279c0.0833-0.01 2.0797-0.224 3.416 0.34l-0.1089 0.256z"/>
  <path d="m14.066 172.01-0.1025-0.26c0.0544-0.022 1.3555-0.525 2.6053-0.605l0.016 0.278c-1.2017 0.077-2.506 0.584-2.5188 0.587z"/>
 </g>
 <path d="m5.6058 165.2-1.1009 0.999 13.765 15.162 1.1009-1-13.765-15.161z" fill="#DCECEB"/>
 <path d="m51.172 121.32s-0.0865 0.477-0.2468 1.295c-0.3364 1.736-1.003 5.015-1.8586 8.527-1.1056 4.515-2.5284 9.418-3.9897 11.94-1.692 2.916-8.6555 9.069-14.699 14.11-5.1401 4.284-9.6136 7.764-9.6136 7.764l-9.3574-9.6s19.362-17.452 19.884-18.148c0.5224-0.698 2.82-10.838 3.6917-18.846 0.3781-3.467 1.4388-7.162 2.522-10.238 1.4164-4.029 2.8712-6.996 2.8712-6.996l9.0529 3.307 0.0897 0.849 0.8781 8.512 0.7755 7.524z" fill="#489DA2"/>
 <path d="m50.926 122.61c-0.3365 1.737-1.003 5.015-1.8586 8.527-1.1056 4.516-2.5284 9.419-3.9897 11.94-1.692 2.917-8.6555 9.069-14.699 14.11 1.4485-7.88 10.77-7.172 9.3894-12.933-1.4357-6.006 4.5696-8.358 2.1758-16.19-2.3938-7.835 1.4805-13.055 1.4805-13.055s3.5122 3.506 7.5019 7.601z" fill="#408C91"/>
 <path d="m69.984 60.035s-1.583 1.2177-2.7142 3.7461c-0.4423 0.987-0.814 2.1727-0.9967 3.5635-0.6537 4.9607-9.2707-0.391-9.2707-0.391l4.1787-8.7484 3.4225-1.8266 2.6662 1.8138 2.7142 1.8426z" fill="#91415C"/>
 <g fill="#F5911F">
  <path d="m57.005 65.714s0.6826-2.1278 1.6471-2.2079c0.9646-0.0769 8.0146 0.9517 8.3415 2.5893 0.3268 1.6407 0 2.6854 0 2.6854l-9.9886-3.0668z"/>
  <path d="m83.728 73.266 0.6954-3.2206s-3.2206-0.8364-4.4383-0.6794-2.349 3.9-2.349 3.9h6.0919z"/>
  <path d="m65.623 90.065s4.5121 1.2114 14.049-7.3544c9.5368-8.5658-7.912-5.1818-7.912-5.1818l-6.1368 12.536z"/>
 </g>
 <path d="m82.077 169.06h-29.065v0.839h29.065v-0.839z" fill="#040707"/>
 <path d="m64.305 200.89-8.8478-40.682-8.8478 40.682-0.8203-0.179 9.2579-42.566c0.0417-0.193 0.2115-0.33 0.4102-0.33s0.3685 0.137 0.4102 0.33l9.258 42.566-0.8204 0.179z" fill="#040707"/>
 <path d="m64.527 176.82h-6.8834l-0.1538-2.538-0.3109-5.133h6.5886l0.5095 5.133 0.25 2.538z" fill="#91415C"/>
 <path d="m64.277 174.28h-6.7872l-0.3109-5.133h6.5886l0.5095 5.133z" fill="#75354A"/>
 <path d="m57.643 176.82h6.8834s3.0924 3.151 6.4187 3.5 5.076 1.224 5.9509 3.236h-20.477l1.2242-6.736z" fill="#FDAB3F"/>
 <g fill="#fff">
  <path d="m62.325 179.75-0.1506-0.237c0.0929-0.058 2.272-1.435 3.6148-1.714l0.0576 0.272c-1.2882 0.273-3.4993 1.666-3.5218 1.679z"/>
  <path d="m64.643 181.12-0.2276-0.163c0.0481-0.067 1.2306-1.689 2.5477-2.301l0.1185 0.253c-1.2529 0.58-2.429 2.195-2.4386 2.211z"/>
  <path d="m67.15 181.85-0.2628-0.099c0.0224-0.055 0.5223-1.359 1.301-2.333l0.218 0.176c-0.7499 0.936-1.253 2.243-1.2562 2.256z"/>
 </g>
 <path d="m76.896 183.55h-20.477v1.487h20.477v-1.487z" fill="#DCECEB"/>
 <path d="m93.455 200.89-8.851-40.682-8.851 40.682-0.8204-0.179 9.258-42.566c0.0416-0.193 0.2115-0.33 0.4102-0.33 0.1986 0 0.3685 0.137 0.4102 0.33l9.2579 42.566-0.8139 0.179z" fill="#040707"/>
 <path d="m78.77 184.62h-29.145v0.84h29.145v-0.84z" fill="#040707"/>
 <path d="m68.657 173.18h-14.1s0.2756-23.493 0.2756-27.672c0-2.97-2.8168-7.876-5.7618-14.375-1.1953-2.641-2.4098-5.544-3.4673-8.691-1.4741-4.393-2.3554-8.175-2.8809-11.126-0.7755-4.355-0.7755-6.893-0.7755-6.893l7.5755 0.849 11.053 1.24s1.2113 4.281 2.7142 9.809c2.397 8.829 5.5343 20.833 5.64 23.618 0.1731 4.528-0.2724 33.241-0.2724 33.241z" fill="#489DA2"/>
 <path d="m63.288 116.33c-3.0571-1.289-6.204-2.522-9.3316-2.365-1.2114 0.061-2.4067-7e-3 -3.5635-0.173-2.8456-0.401-5.4798-1.381-7.6781-2.468-2.3009-1.134-4.1243-2.387-5.2138-3.204 1.4164-4.028 2.8713-6.996 2.8713-6.996l9.0528 3.307 0.0898 0.849 11.052 1.241c0.0064 0 1.2177 4.281 2.7206 9.809z" fill="#408C91"/>
 <path d="m107.14 72.44s-11.751 11.492-15.145 12.274c-3.3936 0.7819-15.93-3.2655-18.019-3.1341-0.9453 0.0609-2.9386 6.7007-4.8293 13.956-2.2912 8.7679-4.4415 18.426-4.4415 18.426s-5.8739-2.349-15.408-3.002c-1.4036-0.096-2.6726-0.305-3.8166-0.593-6.6399-1.663-9.1074-5.935-9.1074-5.935 9.4022-13.45 9.5304-25.201 11.492-32.51 1.958-7.3128 9.7931-7.8352 15.667-6.0054 2.6021 0.8108 8.2261 1.8266 10.838 2.7431 2.6117 0.9133 16.061 6.1368 16.974 6.1368s12.011-6.2682 12.011-6.2682c3.521-0.0064 3.784 3.9128 3.784 3.9128z" fill="#FFAB40"/>
 <path d="m103.57 69.344s2.263-1.9997 4.179-2.7816 4.525-2.3906 4.525-1.5446-2.349 2.0445-2.349 2.0445l7.159-0.6505s-3.157 3.1981-5.679 3.807c-2.525 0.6089-5.745 1.7401-5.745 1.7401l-2.09-2.6149z" fill="#91415C"/>
 <path d="m124.29 40.648-43.106 3.5948 2.0832 24.982 43.107-3.5948-2.084-24.982z" fill="#b83f3f"/>
 <path d="m121.91 43.468-37.902 3.1607 1.6491 19.776 37.902-3.1607-1.649-19.776z" fill="#fff"/>
 <g fill="#b83f3f">
  <path d="m89.685 66.36 7.3737-15.645 9.8607 14.206-17.234 1.4389z"/>
  <path d="m106.14 65.018 5.701-12.1 7.626 10.988-13.327 1.112z"/>
  <path d="m104.76 52.38c1.419-0.0699 2.514-1.2773 2.444-2.6967-0.07-1.4195-1.278-2.5135-2.697-2.4436-1.42 0.0699-2.514 1.2773-2.444 2.6968s1.278 2.5135 2.697 2.4435z"/>
 </g>
 <path d="m65.135 173.29h-0.8396c0-0.253 0.032-25.226-0.1122-31.244-0.1442-5.942-10.508-30.046-10.61-30.29l0.7691-0.333c0.4295 0.997 10.533 24.496 10.681 30.6 0.1474 6.031 0.1122 31.014 0.1122 31.267z" fill="#408C91"/>
 <path d="m69.151 95.531c-2.2912 8.7678-4.4415 18.426-4.4415 18.426s-5.874-2.348-15.408-3.002c-1.4036-0.096-2.6726-0.305-3.8166-0.593 0.2179-0.244 0.455-0.481 0.7146-0.711 7.864-7.05 10.806-2.349 14.654-7.441 2.8745-3.8075 5.6657-4.019 8.2966-6.6788z" fill="#F5911F"/>
 <path d="m73.454 48.021 1.4356-1.5029s0.1314-2.6758-2.5669-6.1592c-2.6982-3.4833-4.2652-2.1759-3.0475 0s-2.4386 1.0447-5.7009 0.6089c-3.2622-0.4358-5.9605 0.0256-4.3518 2.147 1.6119 2.1182 0.2179 2.2048-3.7878 3.8615-4.0056 1.6568-3.3936 4.0922 0 4.3518 3.3937 0.2596 1.1344 2.2624-1.4773 5.0472-2.6149 2.7847-0.612 4.3518 2.2625 2.7847 2.8712-1.567 3.4833 0.1731 2.5251 2.6118-0.9581 2.4386 2.4387 0.3493 4.0025-1.394 1.5671-1.7401 1.1312 1.3042 3.525-2.5252 2.3971-3.823 7.1815-9.8316 7.1815-9.8316z" fill="#0C1B3C"/>
 <path d="m69.984 60.035s-1.5831 1.2177-2.7143 3.7461c-1.9067-2.0253-0.8107-5.5054-0.8107-5.5054l0.8107-0.0865 2.7143 1.8458z" fill="#75354A"/>
 <path d="m74.893 46.521s-0.4358 4.4191 0.391 6.6815c0.8267 2.2624 1.6535 2.349 0.6537 3.2206s-1.6536 0.6954-1.8715 1.6984c-0.2179 0.9998 0.2179 4.4383-2.3072 4.3518-2.5252-0.0865-5.2235-3.6981-5.483-4.6146 0 0-2.6534-0.8716-2.6983-3.0891-0.0448-2.2208 2.1343-2.9611 3.0027-1.9164 0.8716 1.0447 1.8266-0.3044 1.8715-1.958 0.0448-1.6535 1.0895-4.0024 2.8712-3.8743 1.785 0.1314 2.6118-1.6535 3.5699-0.4999z" fill="#91415C"/>
 <g fill="#F2BAAB">
  <path d="m179.15 204.57 0.417-1.512c2.268-8.223-2.26-14.043-2.455-14.289l-0.657 0.522c0.042 0.054 3.986 5.143 2.596 12.293-1.138-2.244-4.471-6.743-13.014-7.172l-0.042 0.839c10.758 0.539 12.742 7.727 12.761 7.797l0.394 1.522z"/>
  <path d="m161.78 194.98c0 1.1 0.891 1.99 1.99 1.99s1.99-0.89 1.99-1.99c0-1.099-0.891-1.99-1.99-1.99s-1.99 0.891-1.99 1.99z"/>
  <path d="m184.39 194.98c0 1.1 0.891 1.99 1.99 1.99s1.99-0.89 1.99-1.99c0-1.099-0.891-1.99-1.99-1.99s-1.99 0.891-1.99 1.99z"/>
  <path d="m174.08 187.46c0 1.099 0.891 1.99 1.99 1.99s1.99-0.891 1.99-1.99c0-1.1-0.891-1.99-1.99-1.99s-1.99 0.89-1.99 1.99z"/>
  <path d="m179.57 203.06c0.974-3.717 5.476-6.867 5.521-6.899l-0.477-0.689c-0.196 0.134-4.801 3.358-5.855 7.377l0.811 0.211z"/>
 </g>
 <path d="m125.5 182.26c3.782-5.579 8.015-9.386 14.658-13.485 6.64-4.099 14.629-3.211 18.067-4.384 3.436-1.176 3.035 3.112 1.564 7.015s-0.497 22.746-19.689 26.521c-19.192 3.778-17.391-11.546-14.6-15.667z" fill="#F2D6C8"/>
 <g fill="#f59b9b">
  <path d="m136.78 187.58c-0.022 0-0.045-3e-3 -0.067-9e-3 -0.151-0.039-0.24-0.189-0.202-0.34 1.586-6.275-0.862-12.953-0.888-13.02-0.054-0.144 0.02-0.305 0.164-0.359 0.144-0.055 0.304 0.019 0.359 0.163 0.025 0.068 2.535 6.906 0.903 13.354-0.028 0.128-0.144 0.211-0.269 0.211z"/>
  <path d="m136.65 188.31c-0.112 0-0.218-0.068-0.26-0.18-0.054-0.144 0.016-0.308 0.161-0.362 6.008-2.333 15.353-0.237 15.75-0.147 0.151 0.035 0.244 0.185 0.212 0.336-0.036 0.151-0.186 0.247-0.337 0.212-0.096-0.023-9.575-2.151-15.42 0.121-0.039 0.013-0.071 0.02-0.106 0.02z"/>
  <path d="m134.31 193.44c-0.032 0-0.064-6e-3 -0.096-0.016-0.145-0.054-0.222-0.215-0.167-0.359 5.915-16.17 23.178-26.091 23.351-26.187 0.135-0.077 0.305-0.029 0.382 0.105 0.077 0.135 0.029 0.305-0.106 0.382-0.173 0.096-17.256 9.921-23.102 25.892-0.041 0.113-0.147 0.183-0.262 0.183z"/>
  <path d="m143.51 178.87c-0.093 0-0.183-0.044-0.237-0.131-0.084-0.131-0.042-0.304 0.086-0.385 4.118-2.592 12.678-0.862 13.04-0.788 0.15 0.032 0.25 0.18 0.218 0.33-0.032 0.151-0.18 0.247-0.331 0.218-0.086-0.019-8.7-1.756-12.629 0.715-0.045 0.029-0.096 0.041-0.147 0.041z"/>
  <path d="m146.81 175.54c-0.044 0-0.092-0.013-0.137-0.036-0.135-0.077-0.183-0.246-0.106-0.381 1.359-2.419 1.279-7.021 1.279-7.069-4e-3 -0.154 0.118-0.282 0.272-0.286h6e-3c0.151 0 0.276 0.122 0.279 0.273 3e-3 0.195 0.083 4.8-1.349 7.354-0.051 0.093-0.147 0.145-0.244 0.145z"/>
 </g>
 <path d="m69.823 202.43s0.4198-10.79 9.2292-15.514c8.8093-4.723 15.081 1.548 15.081 1.548s4.6819-13.462 17.875-13.014c13.193 0.449 14.126 11.466 14.126 11.466s15.026-4.236 23.396 3.932c8.55 8.342 6.832 12.139 6.832 12.139l-86.539-0.557z" fill="#ccadad"/>
 <g fill="#ab6e6e">
  <path d="m92.131 201.15c-0.0545-0.048-5.6016-4.705-11.79-6.874l0.1859-0.529c6.2873 2.205 11.908 6.928 11.966 6.976l-0.3621 0.427z"/>
  <path d="m77.71 199.52-0.2564-0.497c0.1634-0.083 4.0698-2.038 11.258-1.041l-0.0769 0.554c-7.0148-0.974-10.886 0.965-10.924 0.984z"/>
  <path d="m108.38 200.89-0.474-0.298c7e-3 -0.01 0.689-1.106 1.526-3.15 1.477-3.612 3.412-9.675 3.143-20.586l0.558-0.013c0.269 11.02-1.689 17.157-3.185 20.813-0.856 2.093-1.539 3.189-1.568 3.234z"/>
  <path d="m109.24 199.18-0.34-0.445c5.733-4.368 13.697-4.804 13.777-4.807l0.025 0.557c-0.077 7e-3 -7.873 0.433-13.462 4.695z"/>
  <path d="m112.12 190.86-0.538-0.15c0.538-1.904 6.268-9.037 6.512-9.342l0.436 0.35c-0.058 0.076-5.903 7.348-6.41 9.142z"/>
  <path d="m110.26 194.36c-1.788-2.765-4.547-9.838-4.662-10.136l0.522-0.201c0.029 0.073 2.852 7.319 4.611 10.036l-0.471 0.301z"/>
  <path d="m130.04 200.5 0.753-0.538c0.071-0.051 7.22-5.118 14.876-5.474l0.025 0.558c-5.992 0.279-11.687 3.522-13.757 4.829l7.428-0.259 0.019 0.557-9.344 0.327z"/>
  <path d="m135.92 197.6-0.528-0.182c1.176-3.429 3.656-6.669 3.762-6.804l0.442 0.343c-0.026 0.029-2.532 3.304-3.676 6.643z"/>
 </g>
 <path d="m249.78 18.011c4.937-0.0726 8.881-4.1339 8.808-9.0712-0.072-4.9373-4.134-8.881-9.071-8.8084-4.937 0.072586-8.881 4.1339-8.808 9.0712 0.072 4.9373 4.134 8.881 9.071 8.8084z" fill="#e5b2b3"/>
 <path d="m253.22 5.998c-2.317-1.2562-3.592 1.9484-3.592 1.9484s-1.295-3.1982-3.602-1.9259c-2.605 1.4356-0.272 6.0662 3.624 8.0755 3.884-2.0349 6.188-6.6815 3.57-8.0979z" fill="#B2E5E0"/>
 <path d="m251.8 19.429c4.938 0 8.941-4.0029 8.941-8.9407 0-4.9379-4.003-8.9408-8.941-8.9408s-8.941 4.0029-8.941 8.9408c0 4.9378 4.003 8.9407 8.941 8.9407z" fill="#fff"/>
 <g>
  <path d="m255.39 7.3964c-2.317-1.2562-3.592 1.9484-3.592 1.9484s-1.295-3.1982-3.602-1.926c-2.605 1.4356-0.272 6.0663 3.624 8.0755 3.881-2.0317 6.185-6.6815 3.57-8.0979z" fill="#eb8b8b"/>
  <path d="m293.02 59.46c3.869 0 7.005-3.1363 7.005-7.0051 0-3.8689-3.136-7.0052-7.005-7.0052s-7.005 3.1363-7.005 7.0052c0 3.8688 3.136 7.0051 7.005 7.0051z" fill="#e5b2b2"/>
  <path d="m294.91 60.871c3.868 0 7.005-3.1363 7.005-7.0052 0-3.8688-3.137-7.0051-7.005-7.0051-3.869 0-7.006 3.1363-7.006 7.0051 0 3.8689 3.137 7.0052 7.006 7.0052z" fill="#f6eded"/>
 </g>
 <path d="m294.91 51.436 2.4-1.2626-0.458 2.6726 1.939 1.8907-2.682 0.391-1.199 2.429-1.198-2.429-2.683-0.391 1.939-1.8907-0.458-2.6726 2.4 1.2626z" fill="#FFAB40"/>
 <path d="m80.691 125.7v-22.236s7.7422 1.958 9.8188 8.95c2.0733 6.992 9.2643 9.931 12.998 7.691 3.733-2.237 3.518-8.252 8.466-10.351 4.945-2.099 7.989 3.077 13.796 8.813 5.807 5.733 13.552 6.854 19.634 1.679 6.086-5.175 11.96-6.572 16.558-1.817 4.599 4.756 6.672 5.175 11.928 4.195 5.255-0.978 8.652 3.076 8.652 3.076h-101.85z" fill="#e5b2b2"/>
 <path d="m182.54 132.58h-94.044v2.051h94.044v-2.051z" fill="#fff"/>
 <path d="m83.368 131.44c-1.1985 0-2.1663 0.971-2.1663 2.166 0 1.198 0.971 2.166 2.1663 2.166 1.1985 0 2.1662-0.971 2.1662-2.166 0.0032-1.195-0.9677-2.166-2.1662-2.166z" fill="#fff"/>
 <g opacity=".38">
  <path d="m80.691 125.7h101.85s-2.153-12.309-10.037-12.309c-7.88 0-5.941 10.851-16.106 8.082s-11.27-19.41-22.194-20.25c-10.925-0.839-13.553 14.687-19.221 14.687-5.669 0-6.775-6.457-13.966-6.864-7.1909-0.407-6.7743 10.222-12.03 10.78-5.2523 0.56-8.4312 3.916-8.2934 5.874z" fill="#b83f3f" opacity=".38"/>
 </g>
 <path d="m169.13 74.42h-22.275c-1.343 0-2.429-1.0863-2.429-2.4291v-22.275c0-1.3427 1.086-2.4291 2.429-2.4291h22.275c1.342 0 2.429 1.0864 2.429 2.4291v22.275c0 1.3428-1.09 2.4291-2.429 2.4291z" fill="#e5b2b2"/>
 <path d="m171.93 77.173h-22.275c-1.343 0-2.429-1.0863-2.429-2.429v-22.275c0-1.3427 1.086-2.4291 2.429-2.4291h22.275c1.342 0 2.429 1.0864 2.429 2.4291v22.275c3e-3 1.3427-1.087 2.429-2.429 2.429z" fill="#fff"/>
 <path d="m155.54 71.248 10.912-7.6397-10.912-7.6396v15.279z" fill="#d26767"/>
</svg>
